<svg version="1.1" xmlns="http://www.w3.org/2000/svg" viewBox="0 0 778 566" width="778" height="566">
  <!-- svg-source:excalidraw -->
  
  <defs>
    <style class="style-fonts">
      @font-face {
        font-family: "Virgil";
        src: url("https://excalidraw.com/Virgil.woff2");
      }
      @font-face {
        font-family: "Cascadia";
        src: url("https://excalidraw.com/Cascadia.woff2");
      }
      @font-face {
        font-family: "Assistant";
        src: url("https://excalidraw.com/Assistant-Regular.woff2");
      }
    </style>
    
  </defs>
  <rect x="0" y="0" width="778" height="566" fill="#ffffff"></rect><g stroke-linecap="round" transform="translate(10 10) rotate(0 85 70.5)"><path d="M32 0 C54.55 2.49, 77.86 2.24, 138 0 M32 0 C63.78 1.11, 94.52 1.33, 138 0 M138 0 C158.14 -1.21, 169.79 12.49, 170 32 M138 0 C157.94 -1.63, 171.72 8.97, 170 32 M170 32 C169.72 58.22, 170.8 86.26, 170 109 M170 32 C170.47 61.79, 170.74 93.16, 170 109 M170 109 C168.27 128.49, 160.5 140.38, 138 141 M170 109 C169.03 130.54, 159.28 141.52, 138 141 M138 141 C98.16 142.99, 62.92 140.55, 32 141 M138 141 C107.77 140.59, 78.83 141.25, 32 141 M32 141 C11.47 140.72, 0.7 129.32, 0 109 M32 141 C8.58 139.17, 1.4 131.6, 0 109 M0 109 C0.96 85.82, -0.24 59.97, 0 32 M0 109 C-0.91 93.02, -0.84 78.26, 0 32 M0 32 C0.01 12.4, 8.71 -0.45, 32 0 M0 32 C-0.38 10.38, 12.12 -0.55, 32 0" stroke="#1e1e1e" stroke-width="1" fill="none"></path></g><g transform="translate(67.23003387451172 68) rotate(0 27.76996612548828 12.5)"><text x="27.76996612548828" y="0" font-family="Virgil, Segoe UI Emoji" font-size="20px" fill="#1e1e1e" text-anchor="middle" style="white-space: pre;" direction="ltr" dominant-baseline="text-before-edge">Users</text></g><g stroke-linecap="round" transform="translate(590 12) rotate(0 89 70.5)"><path d="M32 0 C64.34 -0.32, 94.48 2.31, 146 0 M32 0 C57.72 1.09, 84.02 -0.08, 146 0 M146 0 C168.16 0.21, 177.3 10.71, 178 32 M146 0 C166.76 1.56, 178.79 11.19, 178 32 M178 32 C177.5 49.16, 176.5 65.4, 178 109 M178 32 C177.66 51.79, 179.35 72.69, 178 109 M178 109 C177 130.24, 168.07 141.97, 146 141 M178 109 C180.18 129.32, 168.45 140.37, 146 141 M146 141 C103.75 138.29, 63.63 141.66, 32 141 M146 141 C117.58 142.22, 91.72 141.91, 32 141 M32 141 C11.52 141.5, -1.27 131.38, 0 109 M32 141 C9.97 143.27, -0.71 129.6, 0 109 M0 109 C1.29 92.06, 0.55 75.57, 0 32 M0 109 C0.96 90.51, 1 70.63, 0 32 M0 32 C-0.42 8.98, 12.11 -0.58, 32 0 M0 32 C0.07 12.9, 9.31 1.31, 32 0" stroke="#1e1e1e" stroke-width="1" fill="none"></path></g><g transform="translate(636.2900466918945 70) rotate(0 42.70995330810547 12.5)"><text x="42.70995330810547" y="0" font-family="Virgil, Segoe UI Emoji" font-size="20px" fill="#1e1e1e" text-anchor="middle" style="white-space: pre;" direction="ltr" dominant-baseline="text-before-edge">Viviendas</text></g><g stroke-linecap="round" transform="translate(619 284) rotate(0 71.5 71.5)"><path d="M32 0 C53.82 1.16, 74.91 -0.81, 111 0 M32 0 C56.12 -0.66, 79.67 -1.06, 111 0 M111 0 C132.84 -0.1, 143.25 9.97, 143 32 M111 0 C130.86 -0.29, 145.03 10.45, 143 32 M143 32 C145.13 59.09, 142.73 84.95, 143 111 M143 32 C142.44 58.91, 142.03 84, 143 111 M143 111 C142.5 133.15, 131.3 141.31, 111 143 M143 111 C144.01 131.35, 132.86 140.7, 111 143 M111 143 C93.35 144.27, 73.04 143.77, 32 143 M111 143 C80.39 142.85, 50.23 143.25, 32 143 M32 143 C12.35 144.82, 1.27 133.32, 0 111 M32 143 C9.39 144.25, -0.81 131.99, 0 111 M0 111 C1.82 88.25, 1.7 67.21, 0 32 M0 111 C0.29 82.87, 0.18 53.29, 0 32 M0 32 C-0.97 9.84, 12.66 0.44, 32 0 M0 32 C-1.73 11.17, 11.87 0.58, 32 0" stroke="#1e1e1e" stroke-width="1" fill="none"></path></g><g transform="translate(641.0400543212891 343) rotate(0 49.45994567871094 12.5)"><text x="49.45994567871094" y="0" font-family="Virgil, Segoe UI Emoji" font-size="20px" fill="#1e1e1e" text-anchor="middle" style="white-space: pre;" direction="ltr" dominant-baseline="text-before-edge">Productos</text></g><g stroke-linecap="round"><g transform="translate(689.5722930133134 159) rotate(0 -0.4660146817810755 57.50000000000006)"><path d="M0.87 -0.89 C0.73 18.21, 0.1 94.98, -0.05 114.5 M-0.13 1.25 C-0.43 20.53, -0.51 96.9, -0.53 115.77" stroke="#1e1e1e" stroke-width="1" fill="none"></path></g><g transform="translate(689.5722930133134 159) rotate(0 -0.4660146817810755 57.50000000000006)"><path d="M-9.05 92.27 C-7.42 102.34, -3.63 111.11, -0.53 115.77 M-9.05 92.27 C-6.2 102.18, -1.55 110.37, -0.53 115.77" stroke="#1e1e1e" stroke-width="1" fill="none"></path></g><g transform="translate(689.5722930133134 159) rotate(0 -0.4660146817810755 57.50000000000006)"><path d="M8.05 92.29 C3.38 102.48, 0.87 111.24, -0.53 115.77 M8.05 92.29 C4.06 102.2, 1.88 110.38, -0.53 115.77" stroke="#1e1e1e" stroke-width="1" fill="none"></path></g></g><mask></mask><g stroke-linecap="round" transform="translate(293 11) rotate(0 87.5 72.5)"><path d="M32 0 C73.88 -0.49, 117.56 1.35, 143 0 M32 0 C69.1 -0.66, 108.36 0.1, 143 0 M143 0 C164.06 0.68, 174.98 10.16, 175 32 M143 0 C166.44 0.41, 177.13 9.09, 175 32 M175 32 C173.83 50.29, 172.56 68.87, 175 113 M175 32 C174.68 56.45, 175.34 80.75, 175 113 M175 113 C176.31 136.11, 162.88 143.12, 143 145 M175 113 C175.5 134.59, 163.58 145.8, 143 145 M143 145 C106.7 144.67, 74.76 142.92, 32 145 M143 145 C115.45 144.46, 88.07 145.31, 32 145 M32 145 C11.64 146.36, -0.06 135.1, 0 113 M32 145 C11.19 145.18, -0.55 136.12, 0 113 M0 113 C0.95 91.29, -0.26 71.74, 0 32 M0 113 C0.26 89.02, 0.24 64.7, 0 32 M0 32 C-1.25 11.25, 9.9 0.36, 32 0 M0 32 C-1.2 11.69, 8.76 -0.21, 32 0" stroke="#1e1e1e" stroke-width="1" fill="none"></path></g><g transform="translate(312.56007385253906 71) rotate(0 67.93992614746094 12.5)"><text x="67.93992614746094" y="0" font-family="Virgil, Segoe UI Emoji" font-size="20px" fill="#1e1e1e" text-anchor="middle" style="white-space: pre;" direction="ltr" dominant-baseline="text-before-edge">User_vivienda</text></g><g stroke-linecap="round"><g transform="translate(185 77.20187124930828) rotate(0 51.99999999999994 1.3921446786019374)"><path d="M-0.87 -0.93 C16.78 -0.26, 87.42 2.78, 104.78 3.5 M0.87 1.19 C18.53 1.57, 86.76 1.72, 104.24 1.76" stroke="#1e1e1e" stroke-width="1" fill="none"></path></g><g transform="translate(185 77.20187124930828) rotate(0 51.99999999999994 1.3921446786019374)"><path d="M80.73 10.25 C84.06 9.97, 91.67 5.69, 104.24 1.76 M80.73 10.25 C89.91 7.79, 97.01 5.25, 104.24 1.76" stroke="#1e1e1e" stroke-width="1" fill="none"></path></g><g transform="translate(185 77.20187124930828) rotate(0 51.99999999999994 1.3921446786019374)"><path d="M80.77 -6.85 C84.03 -3.61, 91.62 -4.35, 104.24 1.76 M80.77 -6.85 C89.93 -3.26, 97.01 0.25, 104.24 1.76" stroke="#1e1e1e" stroke-width="1" fill="none"></path></g></g><mask></mask><g stroke-linecap="round"><g transform="translate(587 87.11676552361075) rotate(0 -56.99999999999994 -0.7214794660206394)"><path d="M1.18 -0.9 C-17.98 -1.19, -95.46 -2.03, -114.76 -2.07 M0.35 1.25 C-18.46 1.13, -93.11 -0.72, -112.44 -0.86" stroke="#1e1e1e" stroke-width="1" fill="none"></path></g><g transform="translate(587 87.11676552361075) rotate(0 -56.99999999999994 -0.7214794660206394)"><path d="M-88.81 -9.01 C-97.9 -7.43, -105.02 -4.54, -112.44 -0.86 M-88.81 -9.01 C-95.76 -7.15, -104.8 -3.22, -112.44 -0.86" stroke="#1e1e1e" stroke-width="1" fill="none"></path></g><g transform="translate(587 87.11676552361075) rotate(0 -56.99999999999994 -0.7214794660206394)"><path d="M-89.1 8.09 C-98.05 4.19, -105.08 1.6, -112.44 -0.86 M-89.1 8.09 C-95.8 4.34, -104.74 2.67, -112.44 -0.86" stroke="#1e1e1e" stroke-width="1" fill="none"></path></g></g><mask></mask><g stroke-linecap="round" transform="translate(312 299) rotate(0 72.5 65)"><path d="M32 0 C56.89 1.56, 82.93 1.55, 113 0 M32 0 C59.81 0.29, 85.72 -0.54, 113 0 M113 0 C132.52 -1.79, 146.1 9.81, 145 32 M113 0 C133.03 1.93, 144.77 12.45, 145 32 M145 32 C145.43 50.27, 143.9 69.95, 145 98 M145 32 C144.08 47.24, 144.7 61.4, 145 98 M145 98 C144.41 117.38, 133.01 128.81, 113 130 M145 98 C145.47 117.17, 136.29 129.28, 113 130 M113 130 C80.88 128.94, 51.23 128.64, 32 130 M113 130 C85.79 131.45, 60.15 129.87, 32 130 M32 130 C10.57 128.09, 1.78 120.56, 0 98 M32 130 C12.3 130.37, -1.28 118.47, 0 98 M0 98 C-0.82 75.38, 1.95 52.23, 0 32 M0 98 C-0.63 75.09, -0.21 50.43, 0 32 M0 32 C-0.01 9.12, 12.22 -1.57, 32 0 M0 32 C2.2 9.71, 11.04 -0.14, 32 0" stroke="#1e1e1e" stroke-width="1" fill="none"></path></g><g transform="translate(344.86004638671875 351.5) rotate(0 39.63995361328125 12.5)"><text x="39.63995361328125" y="0" font-family="Virgil, Segoe UI Emoji" font-size="20px" fill="#1e1e1e" text-anchor="middle" style="white-space: pre;" direction="ltr" dominant-baseline="text-before-edge">Compras</text></g><g stroke-linecap="round"><g transform="translate(458 362.9574858963099) rotate(0 77 -3.3204150215584605)"><path d="M1.07 0.58 C26.52 -0.42, 127.97 -5.47, 153.49 -6.62 M0.17 -0.16 C25.35 -0.9, 126.72 -4.29, 152.27 -5.07" stroke="#1e1e1e" stroke-width="1" fill="none"></path></g><g transform="translate(458 362.9574858963099) rotate(0 77 -3.3204150215584605)"><path d="M129.07 4.23 C138.55 -0.22, 146.08 -2.47, 152.27 -5.07 M129.07 4.23 C135.88 1.6, 145.02 -1.22, 152.27 -5.07" stroke="#1e1e1e" stroke-width="1" fill="none"></path></g><g transform="translate(458 362.9574858963099) rotate(0 77 -3.3204150215584605)"><path d="M128.52 -12.86 C138.11 -11.08, 145.84 -7.1, 152.27 -5.07 M128.52 -12.86 C135.58 -9.93, 144.9 -7.19, 152.27 -5.07" stroke="#1e1e1e" stroke-width="1" fill="none"></path></g></g><mask></mask><g stroke-linecap="round" transform="translate(29 414) rotate(0 73 71)"><path d="M32 0 C51.37 1.09, 68.86 0.52, 114 0 M32 0 C62.09 -0.28, 91.46 0.34, 114 0 M114 0 C133.41 -0.75, 146.29 8.87, 146 32 M114 0 C133.44 0.76, 146.69 11.93, 146 32 M146 32 C146.17 59.68, 145.13 89.52, 146 110 M146 32 C147.08 48.59, 146.6 64.32, 146 110 M146 110 C144.99 131.36, 133.94 140.44, 114 142 M146 110 C143.85 132.9, 137.21 141.49, 114 142 M114 142 C93.08 140.69, 68.16 142.51, 32 142 M114 142 C97.81 142.21, 78.77 141.05, 32 142 M32 142 C10.12 142.29, -1.19 131.56, 0 110 M32 142 C12.15 141.83, 1.75 131.82, 0 110 M0 110 C-0.83 92.01, -0.93 70.52, 0 32 M0 110 C0.31 84.86, -0.96 59.61, 0 32 M0 32 C-0.88 10.31, 10.69 1.47, 32 0 M0 32 C-0.73 8.85, 9.68 -1.84, 32 0" stroke="#1e1e1e" stroke-width="1" fill="none"></path></g><g transform="translate(66.49004364013672 472.5) rotate(0 35.50995635986328 12.5)"><text x="35.50995635986328" y="0" font-family="Virgil, Segoe UI Emoji" font-size="20px" fill="#1e1e1e" text-anchor="middle" style="white-space: pre;" direction="ltr" dominant-baseline="text-before-edge">Recibos</text></g><g stroke-linecap="round" transform="translate(16 235) rotate(0 82 54.5)"><path d="M27.25 0 C60.18 -2.17, 94.22 -2.49, 136.75 0 M27.25 0 C59.51 -0.37, 89.66 -1, 136.75 0 M136.75 0 C154.13 -1.12, 162.71 10.16, 164 27.25 M136.75 0 C155.67 0.08, 164.92 7.47, 164 27.25 M164 27.25 C164.97 43.5, 165.48 62.26, 164 81.75 M164 27.25 C163.07 43.53, 163.26 58.74, 164 81.75 M164 81.75 C164.77 98.65, 154.64 109.5, 136.75 109 M164 81.75 C163.3 97.81, 154.55 109.89, 136.75 109 M136.75 109 C98.1 109.75, 61.8 111.26, 27.25 109 M136.75 109 C96.59 109.14, 54.19 108.27, 27.25 109 M27.25 109 C7.24 109.25, 1.55 100.27, 0 81.75 M27.25 109 C9.91 109.93, 2.22 101.95, 0 81.75 M0 81.75 C-0.32 66.28, -1.28 46, 0 27.25 M0 81.75 C-1.29 68.14, -0.48 52.91, 0 27.25 M0 27.25 C-0.55 7.24, 8.52 0.89, 27.25 0 M0 27.25 C1.32 9.92, 10.66 -0.32, 27.25 0" stroke="#1e1e1e" stroke-width="1" fill="none"></path></g><g transform="translate(39.80006408691406 277) rotate(0 58.19993591308594 12.5)"><text x="58.19993591308594" y="0" font-family="Virgil, Segoe UI Emoji" font-size="20px" fill="#1e1e1e" text-anchor="middle" style="white-space: pre;" direction="ltr" dominant-baseline="text-before-edge">User_recibo</text></g><g stroke-linecap="round"><g transform="translate(97 157) rotate(0 1 35)"><path d="M-0.71 0.57 C-0.54 12.16, 0.79 58.29, 1.1 70.06 M1.12 -0.17 C1.66 11.58, 2.92 60.02, 3.35 71.63" stroke="#1e1e1e" stroke-width="1" fill="none"></path></g><g transform="translate(97 157) rotate(0 1 35)"><path d="M-5.92 48.41 C-2.01 54.1, -0.03 61.38, 3.35 71.63 M-5.92 48.41 C-2.54 57.38, 2.24 67.76, 3.35 71.63" stroke="#1e1e1e" stroke-width="1" fill="none"></path></g><g transform="translate(97 157) rotate(0 1 35)"><path d="M11.17 47.88 C9.83 53.64, 6.57 61.08, 3.35 71.63 M11.17 47.88 C7.72 56.9, 5.67 67.49, 3.35 71.63" stroke="#1e1e1e" stroke-width="1" fill="none"></path></g></g><mask></mask><g stroke-linecap="round"><g transform="translate(105 406) rotate(0 -1.5 -28)"><path d="M0.91 -0.69 C0.15 -10.05, -3.5 -47.99, -4.07 -57.18 M-0.07 1.56 C-0.52 -7.61, -1.43 -46.93, -1.92 -56.26" stroke="#1e1e1e" stroke-width="1" fill="none"></path></g><g transform="translate(105 406) rotate(0 -1.5 -28)"><path d="M7.46 -33.09 C3.28 -42.75, -0.75 -48.14, -1.92 -56.26 M7.46 -33.09 C5.29 -40.51, 0.59 -48, -1.92 -56.26" stroke="#1e1e1e" stroke-width="1" fill="none"></path></g><g transform="translate(105 406) rotate(0 -1.5 -28)"><path d="M-9.63 -32.48 C-7.94 -42.48, -6.11 -48.08, -1.92 -56.26 M-9.63 -32.48 C-6.42 -40.25, -5.73 -47.93, -1.92 -56.26" stroke="#1e1e1e" stroke-width="1" fill="none"></path></g></g><mask></mask></svg>